<svg width="26" height="26" viewBox="0 0 26 26" fill="none" xmlns="http://www.w3.org/2000/svg">
<g opacity="0.7">
<circle cx="19.9" cy="3.7" r="2.7" stroke="#707070" stroke-width="2" stroke-linecap="round" stroke-linejoin="round"/>
<path d="M13.5999 6.39999L8.84695 12.017C8.38893 12.5585 8.19384 13.2748 8.31403 13.9737C8.43422 14.6726 8.85737 15.2826 9.46995 15.64L13.6269 18.065C13.7729 18.151 13.8758 18.2947 13.9101 18.4606C13.9444 18.6265 13.9069 18.7992 13.8069 18.936L9.39995 25" stroke="#707070" stroke-width="2" stroke-linecap="round" stroke-linejoin="round"/>
<path d="M4.59998 8.2L6.75998 4.96C6.90364 4.74391 7.16993 4.64466 7.41998 4.714L13.6 6.4L18.4 10L21.16 14.965C21.3001 15.2174 21.6001 15.3342 21.874 15.243L25 14.2" stroke="#707070" stroke-width="2" stroke-linecap="round" stroke-linejoin="round"/>
<path d="M18.4 10L14.2 14.969" stroke="#707070" stroke-width="2" stroke-linecap="round" stroke-linejoin="round"/>
<path d="M7 17.8L1 25" stroke="#707070" stroke-width="2" stroke-linecap="round" stroke-linejoin="round"/>
</g>
</svg>
